<mxfile host="app.diagrams.net" modified="2023-04-13T10:42:55.313Z" agent="Mozilla/5.0 (Windows NT 10.0; Win64; x64) AppleWebKit/537.36 (KHTML, like Gecko) Chrome/112.0.0.0 Safari/537.36" etag="UTU4e1BXTxSCa_-WBOTI" version="21.1.7" type="device">
  <diagram id="C5RBs43oDa-KdzZeNtuy" name="Page-1">
    <mxGraphModel dx="1290" dy="591" grid="1" gridSize="10" guides="1" tooltips="1" connect="1" arrows="1" fold="1" page="1" pageScale="1" pageWidth="827" pageHeight="1169" math="0" shadow="0">
      <root>
        <mxCell id="WIyWlLk6GJQsqaUBKTNV-0" />
        <mxCell id="WIyWlLk6GJQsqaUBKTNV-1" parent="WIyWlLk6GJQsqaUBKTNV-0" />
        <mxCell id="wTwuT95mkbUKnPyDz3fG-8" style="edgeStyle=none;curved=1;rounded=0;orthogonalLoop=1;jettySize=auto;html=1;exitX=1;exitY=0.5;exitDx=0;exitDy=0;entryX=0;entryY=0.5;entryDx=0;entryDy=0;fontSize=12;startSize=8;endSize=8;" edge="1" parent="WIyWlLk6GJQsqaUBKTNV-1" source="wTwuT95mkbUKnPyDz3fG-0" target="wTwuT95mkbUKnPyDz3fG-1">
          <mxGeometry relative="1" as="geometry" />
        </mxCell>
        <mxCell id="wTwuT95mkbUKnPyDz3fG-0" value="Node Value Location" style="rounded=0;whiteSpace=wrap;html=1;fontSize=16;" vertex="1" parent="WIyWlLk6GJQsqaUBKTNV-1">
          <mxGeometry x="80" y="150" width="120" height="60" as="geometry" />
        </mxCell>
        <mxCell id="wTwuT95mkbUKnPyDz3fG-9" style="edgeStyle=none;curved=1;rounded=0;orthogonalLoop=1;jettySize=auto;html=1;exitX=1;exitY=0.5;exitDx=0;exitDy=0;entryX=0;entryY=0.5;entryDx=0;entryDy=0;fontSize=12;startSize=8;endSize=8;" edge="1" parent="WIyWlLk6GJQsqaUBKTNV-1" source="wTwuT95mkbUKnPyDz3fG-1" target="wTwuT95mkbUKnPyDz3fG-2">
          <mxGeometry relative="1" as="geometry" />
        </mxCell>
        <mxCell id="wTwuT95mkbUKnPyDz3fG-1" value="-create node&lt;br&gt;-assign value" style="rounded=0;whiteSpace=wrap;html=1;fontSize=16;" vertex="1" parent="WIyWlLk6GJQsqaUBKTNV-1">
          <mxGeometry x="270" y="150" width="120" height="60" as="geometry" />
        </mxCell>
        <mxCell id="wTwuT95mkbUKnPyDz3fG-12" style="edgeStyle=none;curved=1;rounded=0;orthogonalLoop=1;jettySize=auto;html=1;exitX=0.5;exitY=1;exitDx=0;exitDy=0;entryX=0.5;entryY=0;entryDx=0;entryDy=0;fontSize=12;startSize=8;endSize=8;" edge="1" parent="WIyWlLk6GJQsqaUBKTNV-1" source="wTwuT95mkbUKnPyDz3fG-2" target="wTwuT95mkbUKnPyDz3fG-3">
          <mxGeometry relative="1" as="geometry">
            <Array as="points">
              <mxPoint x="480" y="260" />
              <mxPoint x="130" y="210" />
            </Array>
          </mxGeometry>
        </mxCell>
        <mxCell id="wTwuT95mkbUKnPyDz3fG-14" style="edgeStyle=none;curved=1;rounded=0;orthogonalLoop=1;jettySize=auto;html=1;exitX=1;exitY=0.5;exitDx=0;exitDy=0;fontSize=12;startSize=8;endSize=8;entryX=0.5;entryY=0;entryDx=0;entryDy=0;" edge="1" parent="WIyWlLk6GJQsqaUBKTNV-1" source="wTwuT95mkbUKnPyDz3fG-2" target="wTwuT95mkbUKnPyDz3fG-5">
          <mxGeometry relative="1" as="geometry">
            <mxPoint x="680" y="180" as="targetPoint" />
            <Array as="points">
              <mxPoint x="690" y="160" />
            </Array>
          </mxGeometry>
        </mxCell>
        <mxCell id="wTwuT95mkbUKnPyDz3fG-2" value="head == none?" style="rhombus;whiteSpace=wrap;html=1;fontSize=16;" vertex="1" parent="WIyWlLk6GJQsqaUBKTNV-1">
          <mxGeometry x="480" y="125" width="140" height="110" as="geometry" />
        </mxCell>
        <mxCell id="wTwuT95mkbUKnPyDz3fG-13" style="edgeStyle=none;curved=1;rounded=0;orthogonalLoop=1;jettySize=auto;html=1;exitX=0.5;exitY=1;exitDx=0;exitDy=0;entryX=0.5;entryY=0;entryDx=0;entryDy=0;fontSize=12;startSize=8;endSize=8;" edge="1" parent="WIyWlLk6GJQsqaUBKTNV-1" source="wTwuT95mkbUKnPyDz3fG-3" target="wTwuT95mkbUKnPyDz3fG-4">
          <mxGeometry relative="1" as="geometry" />
        </mxCell>
        <mxCell id="wTwuT95mkbUKnPyDz3fG-3" value="-head == None&lt;br&gt;-tail == None" style="rounded=0;whiteSpace=wrap;html=1;fontSize=16;" vertex="1" parent="WIyWlLk6GJQsqaUBKTNV-1">
          <mxGeometry x="80" y="280" width="120" height="60" as="geometry" />
        </mxCell>
        <mxCell id="wTwuT95mkbUKnPyDz3fG-4" value="Terminate" style="rounded=1;whiteSpace=wrap;html=1;fontSize=16;" vertex="1" parent="WIyWlLk6GJQsqaUBKTNV-1">
          <mxGeometry x="80" y="400" width="120" height="60" as="geometry" />
        </mxCell>
        <mxCell id="wTwuT95mkbUKnPyDz3fG-15" style="edgeStyle=none;curved=1;rounded=0;orthogonalLoop=1;jettySize=auto;html=1;entryX=1;entryY=0.5;entryDx=0;entryDy=0;fontSize=12;startSize=8;endSize=8;" edge="1" parent="WIyWlLk6GJQsqaUBKTNV-1" source="wTwuT95mkbUKnPyDz3fG-5" target="wTwuT95mkbUKnPyDz3fG-7">
          <mxGeometry relative="1" as="geometry" />
        </mxCell>
        <mxCell id="wTwuT95mkbUKnPyDz3fG-19" style="edgeStyle=none;curved=1;rounded=0;orthogonalLoop=1;jettySize=auto;html=1;exitX=0.5;exitY=1;exitDx=0;exitDy=0;entryX=0.5;entryY=0;entryDx=0;entryDy=0;fontSize=12;startSize=8;endSize=8;" edge="1" parent="WIyWlLk6GJQsqaUBKTNV-1" source="wTwuT95mkbUKnPyDz3fG-5" target="wTwuT95mkbUKnPyDz3fG-6">
          <mxGeometry relative="1" as="geometry" />
        </mxCell>
        <mxCell id="wTwuT95mkbUKnPyDz3fG-5" value="location==first?" style="rhombus;whiteSpace=wrap;html=1;fontSize=16;" vertex="1" parent="WIyWlLk6GJQsqaUBKTNV-1">
          <mxGeometry x="610" y="280" width="140" height="110" as="geometry" />
        </mxCell>
        <mxCell id="wTwuT95mkbUKnPyDz3fG-20" style="edgeStyle=none;curved=1;rounded=0;orthogonalLoop=1;jettySize=auto;html=1;entryX=1;entryY=0.5;entryDx=0;entryDy=0;fontSize=12;startSize=8;endSize=8;" edge="1" parent="WIyWlLk6GJQsqaUBKTNV-1" source="wTwuT95mkbUKnPyDz3fG-6" target="wTwuT95mkbUKnPyDz3fG-10">
          <mxGeometry relative="1" as="geometry" />
        </mxCell>
        <mxCell id="wTwuT95mkbUKnPyDz3fG-21" style="edgeStyle=none;curved=1;rounded=0;orthogonalLoop=1;jettySize=auto;html=1;exitX=0.5;exitY=1;exitDx=0;exitDy=0;entryX=1;entryY=0.5;entryDx=0;entryDy=0;fontSize=12;startSize=8;endSize=8;" edge="1" parent="WIyWlLk6GJQsqaUBKTNV-1" source="wTwuT95mkbUKnPyDz3fG-6" target="wTwuT95mkbUKnPyDz3fG-11">
          <mxGeometry relative="1" as="geometry">
            <Array as="points">
              <mxPoint x="690" y="650" />
            </Array>
          </mxGeometry>
        </mxCell>
        <mxCell id="wTwuT95mkbUKnPyDz3fG-6" value="location==last?" style="rhombus;whiteSpace=wrap;html=1;fontSize=16;" vertex="1" parent="WIyWlLk6GJQsqaUBKTNV-1">
          <mxGeometry x="610" y="425" width="140" height="110" as="geometry" />
        </mxCell>
        <mxCell id="wTwuT95mkbUKnPyDz3fG-16" style="edgeStyle=none;curved=1;rounded=0;orthogonalLoop=1;jettySize=auto;html=1;exitX=0;exitY=0.5;exitDx=0;exitDy=0;entryX=1;entryY=0.5;entryDx=0;entryDy=0;fontSize=12;startSize=8;endSize=8;" edge="1" parent="WIyWlLk6GJQsqaUBKTNV-1" source="wTwuT95mkbUKnPyDz3fG-7" target="wTwuT95mkbUKnPyDz3fG-4">
          <mxGeometry relative="1" as="geometry" />
        </mxCell>
        <mxCell id="wTwuT95mkbUKnPyDz3fG-7" value="-node.next =head&lt;br&gt;-head = node" style="rounded=0;whiteSpace=wrap;html=1;fontSize=16;" vertex="1" parent="WIyWlLk6GJQsqaUBKTNV-1">
          <mxGeometry x="370" y="305" width="150" height="60" as="geometry" />
        </mxCell>
        <mxCell id="wTwuT95mkbUKnPyDz3fG-17" style="edgeStyle=none;curved=1;rounded=0;orthogonalLoop=1;jettySize=auto;html=1;entryX=1;entryY=0.5;entryDx=0;entryDy=0;fontSize=12;startSize=8;endSize=8;" edge="1" parent="WIyWlLk6GJQsqaUBKTNV-1" source="wTwuT95mkbUKnPyDz3fG-10" target="wTwuT95mkbUKnPyDz3fG-4">
          <mxGeometry relative="1" as="geometry" />
        </mxCell>
        <mxCell id="wTwuT95mkbUKnPyDz3fG-10" value="-node.next =None&lt;br&gt;-last.next=None&lt;br&gt;-tail = node&lt;br&gt;" style="rounded=0;whiteSpace=wrap;html=1;fontSize=16;" vertex="1" parent="WIyWlLk6GJQsqaUBKTNV-1">
          <mxGeometry x="380" y="430" width="150" height="105" as="geometry" />
        </mxCell>
        <mxCell id="wTwuT95mkbUKnPyDz3fG-22" style="edgeStyle=none;curved=1;rounded=0;orthogonalLoop=1;jettySize=auto;html=1;exitX=0;exitY=0.5;exitDx=0;exitDy=0;entryX=0.417;entryY=1;entryDx=0;entryDy=0;entryPerimeter=0;fontSize=12;startSize=8;endSize=8;" edge="1" parent="WIyWlLk6GJQsqaUBKTNV-1" source="wTwuT95mkbUKnPyDz3fG-11" target="wTwuT95mkbUKnPyDz3fG-4">
          <mxGeometry relative="1" as="geometry">
            <Array as="points">
              <mxPoint x="150" y="640" />
            </Array>
          </mxGeometry>
        </mxCell>
        <mxCell id="wTwuT95mkbUKnPyDz3fG-11" value="-find location&lt;br&gt;-current.next = node&lt;br&gt;-node.next=nextNode" style="rounded=0;whiteSpace=wrap;html=1;fontSize=16;" vertex="1" parent="WIyWlLk6GJQsqaUBKTNV-1">
          <mxGeometry x="360" y="580" width="190" height="120" as="geometry" />
        </mxCell>
        <mxCell id="wTwuT95mkbUKnPyDz3fG-23" value="No" style="text;html=1;align=center;verticalAlign=middle;resizable=0;points=[];autosize=1;strokeColor=none;fillColor=none;fontSize=16;" vertex="1" parent="WIyWlLk6GJQsqaUBKTNV-1">
          <mxGeometry x="670" y="175" width="40" height="30" as="geometry" />
        </mxCell>
        <mxCell id="wTwuT95mkbUKnPyDz3fG-24" value="Yes&lt;span style=&quot;white-space: pre;&quot;&gt;	&lt;/span&gt;" style="text;html=1;align=center;verticalAlign=middle;resizable=0;points=[];autosize=1;strokeColor=none;fillColor=none;fontSize=16;" vertex="1" parent="WIyWlLk6GJQsqaUBKTNV-1">
          <mxGeometry x="390" y="215" width="60" height="30" as="geometry" />
        </mxCell>
        <mxCell id="wTwuT95mkbUKnPyDz3fG-25" value="No" style="text;html=1;align=center;verticalAlign=middle;resizable=0;points=[];autosize=1;strokeColor=none;fillColor=none;fontSize=16;" vertex="1" parent="WIyWlLk6GJQsqaUBKTNV-1">
          <mxGeometry x="680" y="385" width="40" height="30" as="geometry" />
        </mxCell>
        <mxCell id="wTwuT95mkbUKnPyDz3fG-26" value="yes&lt;br&gt;" style="text;html=1;align=center;verticalAlign=middle;resizable=0;points=[];autosize=1;strokeColor=none;fillColor=none;fontSize=16;" vertex="1" parent="WIyWlLk6GJQsqaUBKTNV-1">
          <mxGeometry x="550" y="295" width="50" height="30" as="geometry" />
        </mxCell>
        <mxCell id="wTwuT95mkbUKnPyDz3fG-27" value="yes&lt;br&gt;" style="text;html=1;align=center;verticalAlign=middle;resizable=0;points=[];autosize=1;strokeColor=none;fillColor=none;fontSize=16;" vertex="1" parent="WIyWlLk6GJQsqaUBKTNV-1">
          <mxGeometry x="545" y="455" width="50" height="30" as="geometry" />
        </mxCell>
        <mxCell id="wTwuT95mkbUKnPyDz3fG-29" value="No" style="text;html=1;align=center;verticalAlign=middle;resizable=0;points=[];autosize=1;strokeColor=none;fillColor=none;fontSize=16;" vertex="1" parent="WIyWlLk6GJQsqaUBKTNV-1">
          <mxGeometry x="670" y="585" width="40" height="30" as="geometry" />
        </mxCell>
      </root>
    </mxGraphModel>
  </diagram>
</mxfile>
